<svg xmlns="http://www.w3.org/2000/svg"
     viewBox="0 14 540 116"
     fill="none"
     role="img"
     aria-label="therabits">

  <defs>
    <linearGradient id="g" x1="0" y1="0" x2="620" y2="140" gradientUnits="userSpaceOnUse">
      <stop stop-color="#7C5CFF"/>
      <stop offset="1" stop-color="#37D6C5"/>
    </linearGradient>
    <filter id="s" x="-30%" y="-30%" width="160%" height="160%">
      <feDropShadow dx="0" dy="10" stdDeviation="10"
                    flood-color="#000" flood-opacity="0.35"/>
    </filter>
  </defs>

  <g filter="url(#s)" transform="translate(10,18)">
    <rect x="0" y="0" width="104" height="104" rx="26"
          fill="rgba(255,255,255,0.04)"
          stroke="rgba(255,255,255,0.12)"/>

    <path d="M34 38c0-7 6-13 13-13h18c7 0 13 6 13 13v13c0 7-6 13-13 13H52l-12 10v-10H47c-7 0-13-6-13-13V38Z"
          fill="rgba(255,255,255,0.02)"
          stroke="rgba(255,255,255,0.14)"/>

    <path d="M40 48 L60 40 L74 56 L58 72 L40 62 Z"
          stroke="url(#g)" stroke-width="2.5"
          fill="none" opacity="0.95"/>

    <circle cx="40" cy="48" r="4.3" fill="url(#g)"/>
    <circle cx="60" cy="40" r="4.3" fill="url(#g)"/>
    <circle cx="74" cy="56" r="4.3" fill="url(#g)"/>
    <circle cx="58" cy="72" r="4.3" fill="url(#g)"/>
    <circle cx="40" cy="62" r="4.3" fill="url(#g)"/>

    <path d="M70 33 L86 42 L70 51 Z"
          fill="rgba(234,240,255,0.75)"/>
  </g>

  <g transform="translate(140,38)">
    <text x="0" y="52"
          font-size="56"
          font-weight="800"
          font-family="ui-sans-serif, system-ui, -apple-system, Segoe UI, Roboto, Helvetica, Arial"
          fill="#EAF0FF"
          letter-spacing="-1.2">
      thera<tspan fill="url(#g)">bits</tspan>
    </text>

    <text x="2" y="84"
          font-size="16"
          font-weight="500"
          font-family="ui-sans-serif, system-ui, -apple-system, Segoe UI, Roboto, Helvetica, Arial"
          fill="#A7B2D6">
      Personalized AI-Powered Psychotherapy Skills Lab
    </text>
  </g>
</svg>
