<?xml version="1.0" encoding="UTF-8"?>
<!DOCTYPE svg PUBLIC "-//W3C//DTD SVG 1.1//EN" "http://www.w3.org/Graphics/SVG/1.1/DTD/svg11.dtd">
<!-- Creator: CorelDRAW -->
<svg xmlns="http://www.w3.org/2000/svg" xml:space="preserve" width="2238px" height="892px" shape-rendering="geometricPrecision" text-rendering="geometricPrecision" image-rendering="optimizeQuality" fill-rule="evenodd" clip-rule="evenodd"
viewBox="0 0 2225.59 887.251"
 xmlns:xlink="http://www.w3.org/1999/xlink">
 <g id="Ebene_x0020_1">
  <metadata id="CorelCorpID_0Corel-Layer"/>
  <polygon fill="#78787A" fill-rule="nonzero" points="889.185,714.774 907.526,714.774 936.968,611.492 967.371,714.774 985.713,714.774 1021.91,588.327 1004.05,588.327 976.541,689.195 947.101,588.327 927.797,588.327 898.356,689.195 870.848,588.327 852.99,588.327 "/>
  <path fill="#78787A" d="M1031.56 630.318l15.7656 0 0 84.4566 -15.7656 0 0 -84.4566zm-3.85741 -30.4082c0,6.27475 5.30805,11.5828 11.5828,11.5828 6.75399,0 12.062,-5.30805 12.062,-11.5828 0,-6.75869 -5.30805,-12.0667 -12.062,-12.0667 -6.27475,0 -11.5828,5.30805 -11.5828,12.0667z"/>
  <path fill="#78787A" fill-rule="nonzero" d="M1116.99 630.318l-23.1656 0 0 -24.1335 -15.9288 0 0 24.1335 -18.661 0 0 13.5115 18.661 0 0 44.4037c0,13.5127 0,28.4748 25.099,28.4748 3.37465,0 10.6161,-0.483938 14.4794,-2.89658l0 -14.4782c-3.37934,1.9287 -7.72539,2.41264 -11.5828,2.41264 -12.0667,0 -12.0667,-10.138 -12.0667,-19.3035l0 -38.6129 23.1656 0 0 -13.5115z"/>
  <path fill="#78787A" fill-rule="nonzero" d="M1183.59 630.318l-23.1668 0 0 -24.1335 -15.9288 0 0 24.1335 -18.3368 0 0 13.5115 18.3368 0 0 44.4037c0,13.5127 0.482764,28.4748 25.1002,28.4748 3.37347,0 10.6161,-0.483938 14.4782,-2.89658l0 -14.4782c-2.89541,1.9287 -7.72539,2.41264 -11.1047,2.41264 -12.5448,0 -12.5448,-10.138 -12.5448,-19.3035l0 -38.6129 23.1668 0 0 -13.5115z"/>
  <path fill="#78787A" d="M1283.01 678.096l0 -5.79199c0,-21.7161 -11.584,-44.4037 -41.5036,-44.4037 -25.1002,0 -43.437,19.3082 -43.437,44.4037 0,25.0955 16.892,44.4037 43.437,44.4037 16.4081,0 28.4748,-5.79199 37.645,-17.3748l-12.0667 -9.17133c-6.27475,7.72069 -13.5115,12.5507 -23.1656,12.5507 -14.9621,0 -28.9576,-9.6541 -28.9576,-24.6162l68.0485 0zm-68.0485 -12.5507c0,-11.5828 10.6161,-24.6115 26.5449,-24.6115 15.9241,0 24.1288,10.6161 24.1288,24.6115l-50.6737 0z"/>
  <path fill="#78787A" fill-rule="nonzero" d="M1301.35 714.774l15.93 0 0 -43.437c0,-19.7874 10.1322,-28.4748 23.6448,-28.4748 10.1369,0 18.8243,5.79199 18.8243,21.7208l0 50.191 16.4081 0 0 -54.537c0,-22.6828 -14.4782,-32.3369 -30.8863,-32.3369 -13.0334,0 -23.6495,6.27475 -27.5128,15.4461l-0.478065 0 0 -13.0287 -15.93 0 0 84.4566z"/>
  <polygon fill="#78787A" fill-rule="nonzero" points="1463.03,584.947 1450.97,580.606 1394.02,717.67 1406.57,722.498 "/>
  <polygon fill="#78787A" fill-rule="nonzero" points="1483.79,714.774 1500.68,714.774 1500.68,656.858 1562.46,656.858 1562.46,714.774 1579.35,714.774 1579.35,588.327 1562.46,588.327 1562.46,640.934 1500.68,640.934 1500.68,588.327 1483.79,588.327 "/>
  <path fill="#78787A" d="M1685.05 678.096l0 -5.79199c0,-21.7161 -11.1047,-44.4037 -41.0243,-44.4037 -25.1002,0 -43.437,19.3082 -43.437,44.4037 0,25.0955 16.4081,44.4037 43.437,44.4037 15.9241,0 28.4748,-5.79199 37.161,-17.3748l-12.0656 -9.17133c-6.27475,7.72069 -13.5127,12.5507 -23.1668,12.5507 -14.9621,0 -28.4737,-9.6541 -28.4737,-24.6162l67.5693 0zm-67.5693 -12.5507c0,-11.5828 10.1322,-24.6115 26.061,-24.6115 16.4081,0 24.1335,10.6161 24.6127,24.6115l-50.6737 0z"/>
  <path fill="#78787A" fill-rule="nonzero" d="M1705.79 714.774l15.9288 0 0 -42.4703c0,-18.8207 8.68739,-27.0289 24.1335,-27.0289 2.41147,0 5.30805,0.483938 7.71952,0.966702l0.966702 -17.3748c-2.41617,-0.482764 -4.82881,-0.966702 -7.24145,-0.966702 -10.6161,0 -21.2369,6.27475 -25.0955,15.4461l-0.482764 0 0 -13.0287 -15.9288 0 0 84.4566z"/>
  <path fill="#78787A" d="M1850.1 579.639l-16.4128 0 0 62.7405c-5.79081,-8.68739 -17.3748,-14.4794 -29.4415,-14.4794 -26.061,0 -42.953,19.3082 -42.953,44.4037 0,25.0955 16.4128,44.4037 42.953,44.4037 11.1047,0 23.1668,-5.30805 29.4415,-13.9954l0 0 0 12.062 16.4128 0 0 -135.135zm-43.9197 122.106c-17.3748,0 -27.9956,-12.0667 -27.9956,-29.4415 0,-16.8908 10.6208,-29.4415 27.9956,-29.4415 16.8908,0 27.5069,12.5507 27.5069,29.4415 0,17.3748 -10.6161,29.4415 -27.5069,29.4415z"/>
  <path fill="#78787A" d="M1952.9 678.096l0 -5.79199c0,-21.7161 -11.1,-44.4037 -41.0243,-44.4037 -25.0955,0 -43.437,19.3082 -43.437,44.4037 0,25.0955 16.4128,44.4037 43.437,44.4037 16.0886,0 28.4737,-5.79199 37.161,-17.3748l-12.062 -9.17133c-6.27475,7.72069 -13.5162,12.5507 -23.1656,12.5507 -14.9621,0 -28.4795,-9.6541 -28.4795,-24.6162l67.5704 0zm-67.5704 -12.5507c0,-11.5828 10.138,-24.6115 26.0622,-24.6115 16.5725,0 24.1335,10.6161 24.6162,24.6115l-50.6784 0z"/>
  <path fill="#78787A" fill-rule="nonzero" d="M2043.64 641.418c-8.20463,-9.17133 -19.7874,-13.0334 -32.3369,-13.0334 -26.0622,0 -43.9209,18.3415 -43.9209,44.4037 0,26.061 17.8587,43.9197 43.9209,43.9197 12.5495,0 23.6495,-3.86328 32.3369,-13.0334l-11.584 -11.5828c-5.30805,6.27475 -11.5828,9.6541 -20.2702,9.6541 -16.8908,0 -27.5116,-13.0334 -27.5116,-28.4748 0,-15.9288 9.17016,-29.9243 26.5449,-29.9243 8.68739,0 14.9621,2.89541 20.7541,9.17016l12.0667 -11.0989z"/>
  <polygon fill="#78787A" fill-rule="nonzero" points="2056.18,714.774 2072.11,714.774 2072.11,670.858 2111.2,714.774 2134.37,714.774 2091.42,668.442 2131,630.318 2108.31,630.318 2072.11,666.996 2072.11,579.639 2056.18,579.639 "/>
  <path fill="#78787A" d="M2225.59 678.096l0 -5.79199c0,-21.7161 -11.5828,-44.4037 -41.0243,-44.4037 -25.5782,0 -43.9197,19.3082 -43.9197,44.4037 0,25.0955 16.8908,44.4037 43.437,44.4037 16.4116,0 28.4737,-5.79199 37.645,-17.3748l-12.0667 -9.17133c-6.27005,7.72069 -13.5127,12.5507 -23.1668,12.5507 -14.9574,0 -28.9576,-9.6541 -28.9576,-24.6162l68.0532 0zm-68.0532 -12.5507c0,-11.5828 10.6208,-24.6115 26.5461,-24.6115 15.9288,0 24.1323,10.6161 24.1323,24.6115l-50.6784 0z"/>
  <path fill="#78787A" fill-rule="nonzero" d="M356.362 339.773l-42.4691 0 0 93.1487c0,22.6828 -11.1,43.437 -38.9312,43.437 -30.0852,0 -31.5347,-31.3702 -31.5347,-50.1957l0 -86.39 -42.4703 0 0 107.627c0,34.7496 16.4081,67.0865 62.2612,67.0865 28.4748,0 44.399,-14.4782 52.1244,-31.3749l0.47924 0 0 27.0289 40.5404 0 0 -170.367z"/>
  <path fill="#78787A" fill-rule="nonzero" d="M401.249 510.14l42.6335 0 0 -93.1475c0,-22.6828 10.9356,-43.437 38.9312,-43.437 29.9196,0 31.3702,31.3702 31.3702,50.1945l0 86.39 42.953 0 0 -107.627c0,-34.7496 -16.4081,-67.0865 -62.2565,-67.0865 -28.4795,0 -44.8876,14.4794 -52.6071,31.3749l-0.483938 0 0 -27.0289 -40.5404 0 0 170.367z"/>
  <polygon fill="#78787A" fill-rule="nonzero" points="604.92,339.29 647.709,339.29 647.709,510.464 604.92,510.464 "/>
  <polygon fill="#78787A" fill-rule="nonzero" points="854.436,510.14 900.289,510.14 967.371,339.773 923.456,339.773 877.602,458.984 831.269,339.773 784.937,339.773 "/>
  <path fill="#78787A" d="M1149.33 439.675l0 -11.584c0,-59.3611 -32.3369,-92.6648 -80.1188,-92.6648 -51.6416,0 -92.6659,35.7163 -92.6659,89.2901 0,54.0531 41.0243,89.7693 92.6659,89.7693 27.0289,0 52.1232,-9.6541 72.3946,-34.2703l-30.8875 -22.6828c-10.6161,13.0334 -24.6162,22.6828 -45.8484,22.6828 -23.6495,0 -42.9542,-14.9574 -45.8496,-40.5404l130.31 0zm-130.31 -31.8542c3.37465,-24.6115 18.8207,-40.5404 43.915,-40.5404 27.0289,0 43.437,15.9288 43.437,40.5404l-87.352 0z"/>
  <path fill="#78787A" fill-rule="nonzero" d="M1185.52 510.14l42.6335 0 0 -91.2141c0,-9.17133 5.62754,-42.9577 45.6899,-42.9577 6.75399,0 13.5115,1.44947 20.7494,2.89541l0 -41.0196c-5.30805,-1.45064 -10.1333,-2.41734 -15.4414,-2.41734 -22.2036,0 -41.0243,11.5828 -50.6784,31.3749l-0.319493 0 0 -27.0289 -42.6335 0 0 170.367z"/>
  <path fill="#78787A" fill-rule="nonzero" d="M1442.28 361.489c-13.9954,-18.8207 -38.1242,-26.0622 -60.8118,-26.0622 -34.2656,0 -68.5313,16.8955 -68.5313,55.0198 0,65.1578 92.1808,37.1669 92.1808,72.3946 0,13.5174 -15.9241,19.7921 -28.4737,19.7921 -18.3415,0 -29.4415,-9.17133 -40.5416,-21.2381l-28.4737 27.0289c17.3748,19.3035 40.0576,26.0622 66.6026,26.0622 34.9093,0 73.3613,-14.0001 73.3613,-54.5405 0,-66.6026 -92.1867,-41.9863 -92.1867,-72.3946 0,-12.546 13.5174,-17.854 25.1002,-17.854 14.4794,0 25.0955,5.79199 33.2989,17.3748l28.4748 -25.5829z"/>
  <path fill="#78787A" d="M1484.27 339.773l42.7933 0 0 170.208 -42.7933 0 0 -170.208zm-5.79199 -57.9152c0,13.5115 11.1,25.5782 27.1886,25.5782 15.2816,0 27.3484,-11.1 27.3484,-25.5782 0,-14.9621 -12.0667,-25.5794 -27.3484,-25.5794 -16.0886,0 -27.1886,12.0667 -27.1886,25.5794z"/>
  <path fill="#78787A" fill-rule="nonzero" d="M1593.83 375.968l0 78.1854c0,40.0623 10.6173,60.3325 55.9876,60.3325 9.6494,0 24.776,-1.44947 33.7817,-5.79081l0 -35.7163c-5.30805,3.86211 -15.9241,5.30805 -23.1656,5.30805 -18.8207,0 -24.1335,-10.6161 -24.1335,-27.5081l0 -74.8107 47.2991 0 0 -36.1955 -47.2991 0 0 -49.7117 -42.4703 0 0 49.7117 -35.2323 0 0 36.1955 35.2323 0z"/>
  <path fill="#78787A" d="M1727.03 284.27c0,13.5115 11.5828,25.5782 27.0289,25.5782 15.9241,0 27.9909,-11.1 27.9909,-25.5782 0,-14.4794 -12.0667,-25.5794 -27.9909,-25.5794 -15.4461,0 -27.0289,12.0667 -27.0289,25.5794zm73.3613 0c0,13.5115 11.5828,25.5782 27.0242,25.5782 15.4461,0 27.5116,-11.1 27.5116,-25.5782 0,-14.4794 -12.0656,-25.5794 -27.5116,-25.5794 -15.4414,0 -27.0242,12.0667 -27.0242,25.5794zm26.0622 225.87l38.1277 0 0 -97.9728c0,-24.1335 0,-76.7406 -72.8773,-76.7406 -27.0289,0 -53.5738,8.20815 -72.3946,27.5128l22.2001 22.1989c11.5828,-10.6161 27.9909,-17.8576 45.8484,-17.8576 22.6828,0 39.0956,11.1036 39.0956,31.853l0 4.82998 -10.6208 0c-42.953,0 -107.623,3.85741 -107.623,59.3611 0,33.7864 30.8875,51.1612 62.2577,51.1612 22.6828,0 42.953,-8.68739 55.0198,-27.5116l0.966702 0 0 23.1656zm-2.41264 -66.6026c0,23.6495 -14.0001,39.0956 -43.437,39.0956 -13.5162,0 -29.4404,-6.75869 -29.4404,-22.6875 0,-24.1288 40.5404,-26.0622 63.7072,-26.0622l9.17016 0 0 9.6541z"/>
  <path fill="#78787A" fill-rule="nonzero" d="M1925.39 375.968l0 78.1854c0,40.0623 11.1,60.3325 55.9818,60.3325 10.138,0 25.1002,-1.44947 33.7876,-5.79081l0 -35.7163c-5.31275,3.86211 -15.4461,5.30805 -23.1668,5.30805 -18.8243,0 -23.6495,-10.6161 -23.6495,-27.5081l0 -74.8107 46.8163 0 0 -36.1955 -46.8163 0 0 -49.7117 -42.953 0 0 49.7117 -34.7496 0 0 36.1955 34.7496 0z"/>
  <path fill="#0057A1" fill-rule="nonzero" d="M211.095 256.762c51.1565,-149.618 194.017,-256.762 360.522,-256.762 166.988,0 309.848,108.594 359.076,256.762 0,0 0.482764,0 0,0 0,0.47924 0,0.47924 -0.483938,0.47924 0,-0.47924 0,-0.47924 0,-0.47924 -54.0531,-126.452 -181.95,-215.738 -329.152,-215.738 -145.756,0 -272.202,89.7693 -327.706,215.738l-62.2565 0z"/>
  <path fill="#0057A1" d="M453.372 674.233c-154.926,29.9243 -319.503,-39.0909 -402.513,-183.396 -83.4934,-144.789 -60.8106,-322.882 43.1128,-439.674 0,0 0,0 0,0 0,0 0.324192,0.478065 0.324192,0.478065 0,0 0,0 0,0 -82.5314,110.04 -96.528,265.933 -22.6828,392.864 73.3566,127.414 213.804,192.083 350.873,176.159l30.8863 53.5691z"/>
  <path fill="#0057A1" fill-rule="nonzero" d="M693.723 256.278c103.281,119.211 125.964,296.815 42.4691,441.121 -83.4934,144.31 -249.037,213.809 -402.029,182.434 0,0 0,0 0,0 0,-0.47924 0,-0.47924 0,-0.47924 0,0 0.482764,0 0.482764,0 136.102,15.9241 275.583,-49.7117 349.423,-177.126 73.5198,-127.414 60.8106,-281.374 -21.2334,-392.38l30.8875 -53.5703z"/>
  <path fill="#0057A1" fill-rule="nonzero" d="M599.128 231.662c0,13.5174 11.5828,25.5794 27.5081,25.5794 15.9288,0 27.9909,-11.1 27.9909,-25.5794 0,-14.9621 -12.062,-26.0622 -27.9909,-26.0622 -15.9253,0 -27.5081,12.0667 -27.5081,26.0622z"/>
  <path fill="#0057A1" fill-rule="nonzero" d="M599.128 231.662l5.30805 0c0,10.6208 9.17133,20.2714 22.2001,20.2714 13.0334,0 22.6828,-8.68739 22.6828,-20.2714 0,-12.0656 -9.6494,-20.753 -22.6828,-20.753 -13.0287,0 -22.2001,9.6541 -22.2001,20.753l-5.30805 0 -5.31275 0c0,-16.8908 14.0001,-31.853 32.8209,-31.853 18.3415,0 33.3036,13.5162 33.3036,31.853 0,17.8587 -14.9621,31.3702 -33.3036,31.3702 -18.8207,0 -32.8209,-14.9574 -32.8209,-31.3702l5.31275 0z"/>
 </g>
</svg>
