<svg xmlns="http://www.w3.org/2000/svg" width="128" height="128" viewBox="0 0 128 128">
  <defs>
    <linearGradient id="g" x1="0" y1="0" x2="128" y2="128">
      <stop stop-color="#7C5CFF"/>
      <stop offset="1" stop-color="#37D6C5"/>
    </linearGradient>
  </defs>
  <rect x="12" y="12" width="104" height="104" rx="28" fill="#0D1324" stroke="rgba(255,255,255,0.18)"/>
  <path d="M34 42c0-7 6-13 13-13h30c7 0 13 6 13 13v20c0 7-6 13-13 13H60L48 87V75H47c-7 0-13-6-13-13V42Z"
        fill="rgba(255,255,255,0.03)" stroke="rgba(255,255,255,0.16)"/>
  <path d="M40 56 L62 46 L82 62 L60 78 L40 68 Z" stroke="url(#g)" stroke-width="4" fill="none"/>
  <circle cx="40" cy="56" r="6" fill="url(#g)"/>
  <circle cx="62" cy="46" r="6" fill="url(#g)"/>
  <circle cx="82" cy="62" r="6" fill="url(#g)"/>
  <circle cx="60" cy="78" r="6" fill="url(#g)"/>
  <circle cx="40" cy="68" r="6" fill="url(#g)"/>
</svg>
